<?xml version="1.0" standalone="no"?>
<!DOCTYPE svg PUBLIC "-//W3C//DTD SVG 20010904//EN"
 "http://www.w3.org/TR/2001/REC-SVG-20010904/DTD/svg10.dtd">
<svg version="1.0" xmlns="http://www.w3.org/2000/svg"
 width="297.000000pt" height="297.000000pt" viewBox="0 0 297.000000 297.000000"
 preserveAspectRatio="xMidYMid meet">
<metadata>
Created by potrace 1.14, written by Peter Selinger 2001-2017
</metadata>
<g transform="translate(0.000000,297.000000) scale(0.100000,-0.100000)"
fill="#000000" stroke="none">
<path d="M462 2507 l-462 -462 0 -1018 0 -1017 1003 0 1002 0 473 473 c259
259 472 474 472 477 0 3 -211 5 -470 5 -258 0 -470 2 -470 5 1 3 214 219 475
480 l475 474 0 523 0 523 -1018 0 -1017 0 -463 -463z m1533 -469 c6 -4 9 -190
8 -530 0 -287 -1 -527 -2 -533 -1 -7 -187 -10 -538 -10 l-538 0 0 535 c-1 294
2 537 6 540 11 7 1052 6 1064 -2z"/>
</g>
</svg>
